<svg width="185" height="40" viewBox="0 0 185 40" fill="none" xmlns="http://www.w3.org/2000/svg">
<g clip-path="url(#clip0_5_950)">
<g filter="url(#filter0_dd_5_950)">
<path fill-rule="evenodd" clip-rule="evenodd" d="M2 0C0.895427 0 0 0.895431 0 2V38C0 39.1046 0.895431 40 2 40H183C184.105 40 185 39.1046 185 38V2C185 0.895431 184.105 0 183 0H2Z" fill="#7315E5"/>
</g>
</g>
<g clip-path="url(#clip1_5_950)">
<path fill-rule="evenodd" clip-rule="evenodd" d="M28.64 20.2045C28.64 19.5664 28.5827 18.9527 28.4764 18.3636H20V21.845H24.8436C24.635 22.97 24.0009 23.9232 23.0477 24.5614V26.8195H25.9564C27.6582 25.2527 28.64 22.9455 28.64 20.2045V20.2045Z" fill="#4285F4"/>
<path fill-rule="evenodd" clip-rule="evenodd" d="M20 29C22.43 29 24.4673 28.1941 25.9564 26.8195L23.0477 24.5614C22.2418 25.1014 21.2109 25.4205 20 25.4205C17.6559 25.4205 15.6718 23.8373 14.9641 21.71H11.9573V24.0418C13.4382 26.9832 16.4818 29 20 29V29Z" fill="#34A853"/>
<path fill-rule="evenodd" clip-rule="evenodd" d="M14.9641 21.71C14.7841 21.17 14.6818 20.5932 14.6818 20C14.6818 19.4068 14.7841 18.83 14.9641 18.29V15.9582H11.9573C11.3477 17.1732 11 18.5477 11 20C11 21.4523 11.3477 22.8268 11.9573 24.0418L14.9641 21.71V21.71Z" fill="#FBBC05"/>
<path fill-rule="evenodd" clip-rule="evenodd" d="M20 14.5795C21.3214 14.5795 22.5077 15.0336 23.4405 15.9255L26.0218 13.3441C24.4632 11.8918 22.4259 11 20 11C16.4818 11 13.4382 13.0168 11.9573 15.9582L14.9641 18.29C15.6718 16.1627 17.6559 14.5795 20 14.5795V14.5795Z" fill="#EA4335"/>
</g>
<path d="M56.248 22.4365C56.248 22.2314 56.2161 22.0492 56.1523 21.8896C56.0931 21.7301 55.986 21.5843 55.8311 21.4521C55.6761 21.32 55.4574 21.1924 55.1748 21.0693C54.8968 20.9417 54.5413 20.8118 54.1084 20.6797C53.6344 20.5339 53.1969 20.3721 52.7959 20.1943C52.3994 20.012 52.0531 19.8024 51.7568 19.5654C51.4606 19.3239 51.2305 19.0482 51.0664 18.7383C50.9023 18.4238 50.8203 18.0615 50.8203 17.6514C50.8203 17.2458 50.9046 16.8766 51.0732 16.5439C51.2464 16.2113 51.4902 15.9242 51.8047 15.6826C52.1237 15.4365 52.4997 15.2474 52.9326 15.1152C53.3656 14.9785 53.8441 14.9102 54.3682 14.9102C55.1064 14.9102 55.7422 15.0469 56.2754 15.3203C56.8132 15.5938 57.2256 15.9606 57.5127 16.4209C57.8044 16.8812 57.9502 17.3893 57.9502 17.9453H56.248C56.248 17.6172 56.1774 17.3278 56.0361 17.0771C55.8994 16.8219 55.6898 16.6214 55.4072 16.4756C55.1292 16.3298 54.776 16.2568 54.3477 16.2568C53.9421 16.2568 53.6048 16.3184 53.3359 16.4414C53.0671 16.5645 52.8665 16.7308 52.7344 16.9404C52.6022 17.1501 52.5361 17.387 52.5361 17.6514C52.5361 17.8382 52.5794 18.0091 52.666 18.1641C52.7526 18.3145 52.8848 18.4557 53.0625 18.5879C53.2402 18.7155 53.4635 18.8363 53.7324 18.9502C54.0013 19.0641 54.318 19.1735 54.6826 19.2783C55.234 19.4424 55.7148 19.6247 56.125 19.8252C56.5352 20.0212 56.877 20.2445 57.1504 20.4951C57.4238 20.7458 57.6289 21.0306 57.7656 21.3496C57.9023 21.6641 57.9707 22.0218 57.9707 22.4229C57.9707 22.8421 57.8864 23.2204 57.7178 23.5576C57.5492 23.8903 57.3076 24.1751 56.9932 24.4121C56.6833 24.6445 56.3096 24.8245 55.8721 24.9521C55.4391 25.0752 54.9561 25.1367 54.4229 25.1367C53.9443 25.1367 53.4727 25.0729 53.0078 24.9453C52.5475 24.8177 52.1283 24.624 51.75 24.3643C51.3717 24.0999 51.071 23.7718 50.8477 23.3799C50.6243 22.9834 50.5127 22.5208 50.5127 21.9922H52.2285C52.2285 22.3158 52.2832 22.5915 52.3926 22.8193C52.5065 23.0472 52.6637 23.234 52.8643 23.3799C53.0648 23.5212 53.2972 23.626 53.5615 23.6943C53.8304 23.7627 54.1175 23.7969 54.4229 23.7969C54.8239 23.7969 55.1589 23.7399 55.4277 23.626C55.7012 23.512 55.9062 23.3525 56.043 23.1475C56.1797 22.9424 56.248 22.7054 56.248 22.4365ZM61.3066 17.6035V25H59.6523V17.6035H61.3066ZM59.543 15.6621C59.543 15.4115 59.625 15.2041 59.7891 15.04C59.9577 14.8714 60.1901 14.7871 60.4863 14.7871C60.778 14.7871 61.0081 14.8714 61.1768 15.04C61.3454 15.2041 61.4297 15.4115 61.4297 15.6621C61.4297 15.9082 61.3454 16.1133 61.1768 16.2773C61.0081 16.4414 60.778 16.5234 60.4863 16.5234C60.1901 16.5234 59.9577 16.4414 59.7891 16.2773C59.625 16.1133 59.543 15.9082 59.543 15.6621ZM68.0674 17.6035H69.5645V24.7949C69.5645 25.4603 69.4232 26.0254 69.1406 26.4902C68.8581 26.9551 68.4639 27.3083 67.958 27.5498C67.4521 27.7959 66.8665 27.9189 66.2012 27.9189C65.9186 27.9189 65.6042 27.8779 65.2578 27.7959C64.916 27.7139 64.5833 27.5817 64.2598 27.3994C63.9408 27.2217 63.6742 26.987 63.46 26.6953L64.2324 25.7246C64.4967 26.0391 64.7884 26.2692 65.1074 26.415C65.4264 26.5609 65.7614 26.6338 66.1123 26.6338C66.4906 26.6338 66.8118 26.5632 67.0762 26.4219C67.3451 26.2852 67.5524 26.0824 67.6982 25.8135C67.8441 25.5446 67.917 25.2165 67.917 24.8291V19.2783L68.0674 17.6035ZM63.043 21.3838V21.2402C63.043 20.6797 63.1113 20.1693 63.248 19.709C63.3848 19.2441 63.5807 18.8454 63.8359 18.5127C64.0911 18.1755 64.401 17.918 64.7656 17.7402C65.1302 17.5579 65.5426 17.4668 66.0029 17.4668C66.4814 17.4668 66.8893 17.5534 67.2266 17.7266C67.5684 17.8997 67.8532 18.1481 68.0811 18.4717C68.3089 18.7907 68.4867 19.1735 68.6143 19.6201C68.7464 20.0622 68.8444 20.5544 68.9082 21.0967V21.5547C68.849 22.0833 68.7487 22.5664 68.6074 23.0039C68.4661 23.4414 68.2793 23.8197 68.0469 24.1387C67.8145 24.4577 67.5273 24.7038 67.1855 24.877C66.8483 25.0501 66.4495 25.1367 65.9893 25.1367C65.5381 25.1367 65.1302 25.0433 64.7656 24.8564C64.4056 24.6696 64.0957 24.4076 63.8359 24.0703C63.5807 23.7331 63.3848 23.3366 63.248 22.8809C63.1113 22.4206 63.043 21.9215 63.043 21.3838ZM64.6904 21.2402V21.3838C64.6904 21.721 64.7223 22.0355 64.7861 22.3271C64.8545 22.6188 64.957 22.8763 65.0938 23.0996C65.235 23.3184 65.4128 23.4915 65.627 23.6191C65.8457 23.7422 66.1032 23.8037 66.3994 23.8037C66.7868 23.8037 67.1035 23.7217 67.3496 23.5576C67.6003 23.3936 67.7917 23.1725 67.9238 22.8945C68.0605 22.612 68.1562 22.2975 68.2109 21.9512V20.7139C68.1836 20.445 68.1266 20.1943 68.04 19.9619C67.958 19.7295 67.8464 19.5267 67.7051 19.3535C67.5638 19.1758 67.3861 19.0391 67.1719 18.9434C66.9577 18.8431 66.7048 18.793 66.4131 18.793C66.1169 18.793 65.8594 18.8568 65.6406 18.9844C65.4219 19.112 65.2419 19.2874 65.1006 19.5107C64.9639 19.734 64.8613 19.9938 64.793 20.29C64.7246 20.5863 64.6904 20.903 64.6904 21.2402ZM73.126 19.1826V25H71.4785V17.6035H73.0303L73.126 19.1826ZM72.832 21.0283L72.2988 21.0215C72.3034 20.4974 72.3763 20.0166 72.5176 19.5791C72.6634 19.1416 72.8639 18.7656 73.1191 18.4512C73.3789 18.1367 73.6888 17.8952 74.0488 17.7266C74.4089 17.5534 74.8099 17.4668 75.252 17.4668C75.6074 17.4668 75.9287 17.5169 76.2158 17.6172C76.5075 17.7129 76.7559 17.8701 76.9609 18.0889C77.1706 18.3076 77.3301 18.5924 77.4395 18.9434C77.5488 19.2897 77.6035 19.7158 77.6035 20.2217V25H75.9492V20.2148C75.9492 19.8594 75.8968 19.5791 75.792 19.374C75.6917 19.1644 75.5436 19.0163 75.3477 18.9297C75.1562 18.8385 74.917 18.793 74.6299 18.793C74.3473 18.793 74.0944 18.8522 73.8711 18.9707C73.6478 19.0892 73.4587 19.251 73.3037 19.4561C73.1533 19.6611 73.0371 19.8981 72.9551 20.167C72.873 20.4359 72.832 20.723 72.832 21.0283ZM84.9727 17.6035V25H83.3184V17.6035H84.9727ZM83.209 15.6621C83.209 15.4115 83.291 15.2041 83.4551 15.04C83.6237 14.8714 83.8561 14.7871 84.1523 14.7871C84.444 14.7871 84.6742 14.8714 84.8428 15.04C85.0114 15.2041 85.0957 15.4115 85.0957 15.6621C85.0957 15.9082 85.0114 16.1133 84.8428 16.2773C84.6742 16.4414 84.444 16.5234 84.1523 16.5234C83.8561 16.5234 83.6237 16.4414 83.4551 16.2773C83.291 16.1133 83.209 15.9082 83.209 15.6621ZM88.6299 19.1826V25H86.9824V17.6035H88.5342L88.6299 19.1826ZM88.3359 21.0283L87.8027 21.0215C87.8073 20.4974 87.8802 20.0166 88.0215 19.5791C88.1673 19.1416 88.3678 18.7656 88.623 18.4512C88.8828 18.1367 89.1927 17.8952 89.5527 17.7266C89.9128 17.5534 90.3138 17.4668 90.7559 17.4668C91.1113 17.4668 91.4326 17.5169 91.7197 17.6172C92.0114 17.7129 92.2598 17.8701 92.4648 18.0889C92.6745 18.3076 92.834 18.5924 92.9434 18.9434C93.0527 19.2897 93.1074 19.7158 93.1074 20.2217V25H91.4531V20.2148C91.4531 19.8594 91.4007 19.5791 91.2959 19.374C91.1956 19.1644 91.0475 19.0163 90.8516 18.9297C90.6602 18.8385 90.4209 18.793 90.1338 18.793C89.8512 18.793 89.5983 18.8522 89.375 18.9707C89.1517 19.0892 88.9626 19.251 88.8076 19.4561C88.6572 19.6611 88.541 19.8981 88.459 20.167C88.377 20.4359 88.3359 20.723 88.3359 21.0283ZM100.723 23.3594L102.432 17.6035H103.484L103.197 19.3262L101.475 25H100.531L100.723 23.3594ZM99.7178 17.6035L101.051 23.3867L101.16 25H100.107L98.1045 17.6035H99.7178ZM105.084 23.3184L106.376 17.6035H107.982L105.986 25H104.934L105.084 23.3184ZM103.662 17.6035L105.351 23.291L105.562 25H104.619L102.876 19.3193L102.589 17.6035H103.662ZM111.086 17.6035V25H109.432V17.6035H111.086ZM109.322 15.6621C109.322 15.4115 109.404 15.2041 109.568 15.04C109.737 14.8714 109.969 14.7871 110.266 14.7871C110.557 14.7871 110.787 14.8714 110.956 15.04C111.125 15.2041 111.209 15.4115 111.209 15.6621C111.209 15.9082 111.125 16.1133 110.956 16.2773C110.787 16.4414 110.557 16.5234 110.266 16.5234C109.969 16.5234 109.737 16.4414 109.568 16.2773C109.404 16.1133 109.322 15.9082 109.322 15.6621ZM116.5 17.6035V18.8066H112.33V17.6035H116.5ZM113.533 15.792H115.181V22.9561C115.181 23.1839 115.213 23.3594 115.276 23.4824C115.345 23.6009 115.438 23.6807 115.557 23.7217C115.675 23.7627 115.814 23.7832 115.974 23.7832C116.088 23.7832 116.197 23.7764 116.302 23.7627C116.407 23.749 116.491 23.7354 116.555 23.7217L116.562 24.9795C116.425 25.0205 116.265 25.057 116.083 25.0889C115.905 25.1208 115.7 25.1367 115.468 25.1367C115.09 25.1367 114.755 25.0706 114.463 24.9385C114.171 24.8018 113.943 24.5807 113.779 24.2754C113.615 23.9701 113.533 23.5645 113.533 23.0586V15.792ZM119.617 14.5V25H117.977V14.5H119.617ZM119.33 21.0283L118.797 21.0215C118.801 20.5111 118.872 20.0394 119.009 19.6064C119.15 19.1735 119.346 18.7975 119.597 18.4785C119.852 18.1549 120.157 17.9066 120.513 17.7334C120.868 17.5557 121.262 17.4668 121.695 17.4668C122.06 17.4668 122.388 17.5169 122.68 17.6172C122.976 17.7174 123.231 17.8792 123.445 18.1025C123.66 18.3213 123.821 18.6084 123.931 18.9639C124.045 19.3148 124.102 19.7432 124.102 20.249V25H122.447V20.2354C122.447 19.8799 122.395 19.5973 122.29 19.3877C122.19 19.1781 122.042 19.0277 121.846 18.9365C121.65 18.8408 121.41 18.793 121.128 18.793C120.832 18.793 120.57 18.8522 120.342 18.9707C120.118 19.0892 119.932 19.251 119.781 19.4561C119.631 19.6611 119.517 19.8981 119.439 20.167C119.367 20.4359 119.33 20.723 119.33 21.0283ZM137.5 19.9141V23.7148C137.359 23.9017 137.138 24.1068 136.837 24.3301C136.541 24.5488 136.146 24.738 135.654 24.8975C135.162 25.057 134.549 25.1367 133.815 25.1367C133.191 25.1367 132.619 25.0319 132.1 24.8223C131.58 24.6081 131.131 24.2959 130.753 23.8857C130.379 23.4756 130.09 22.9766 129.885 22.3887C129.68 21.7962 129.577 21.1217 129.577 20.3652V19.6748C129.577 18.9229 129.671 18.2529 129.857 17.665C130.049 17.0726 130.322 16.5713 130.678 16.1611C131.033 15.751 131.462 15.4411 131.963 15.2314C132.469 15.0173 133.041 14.9102 133.679 14.9102C134.494 14.9102 135.169 15.0469 135.702 15.3203C136.24 15.5892 136.655 15.9629 136.946 16.4414C137.238 16.9199 137.423 17.4668 137.5 18.082H135.818C135.764 17.7357 135.657 17.4258 135.497 17.1523C135.342 16.8789 135.119 16.6647 134.827 16.5098C134.54 16.3503 134.166 16.2705 133.706 16.2705C133.31 16.2705 132.961 16.3457 132.66 16.4961C132.359 16.6465 132.109 16.8675 131.908 17.1592C131.712 17.4508 131.564 17.8063 131.464 18.2256C131.364 18.6449 131.313 19.1234 131.313 19.6611V20.3652C131.313 20.9121 131.37 21.3975 131.484 21.8213C131.603 22.2451 131.771 22.6029 131.99 22.8945C132.214 23.1862 132.485 23.4072 132.804 23.5576C133.123 23.7035 133.483 23.7764 133.884 23.7764C134.276 23.7764 134.597 23.7445 134.848 23.6807C135.098 23.6123 135.297 23.5326 135.442 23.4414C135.593 23.3457 135.709 23.2546 135.791 23.168V21.1924H133.72V19.9141H137.5ZM139.141 21.3838V21.2266C139.141 20.6934 139.218 20.1989 139.373 19.7432C139.528 19.2829 139.751 18.8841 140.043 18.5469C140.339 18.2051 140.699 17.9408 141.123 17.7539C141.551 17.5625 142.035 17.4668 142.572 17.4668C143.115 17.4668 143.598 17.5625 144.021 17.7539C144.45 17.9408 144.812 18.2051 145.108 18.5469C145.405 18.8841 145.63 19.2829 145.785 19.7432C145.94 20.1989 146.018 20.6934 146.018 21.2266V21.3838C146.018 21.917 145.94 22.4115 145.785 22.8672C145.63 23.3229 145.405 23.7217 145.108 24.0635C144.812 24.4007 144.452 24.665 144.028 24.8564C143.604 25.0433 143.124 25.1367 142.586 25.1367C142.044 25.1367 141.558 25.0433 141.13 24.8564C140.706 24.665 140.346 24.4007 140.05 24.0635C139.754 23.7217 139.528 23.3229 139.373 22.8672C139.218 22.4115 139.141 21.917 139.141 21.3838ZM140.788 21.2266V21.3838C140.788 21.7165 140.822 22.0309 140.891 22.3271C140.959 22.6234 141.066 22.8831 141.212 23.1064C141.358 23.3298 141.545 23.5052 141.772 23.6328C142 23.7604 142.271 23.8242 142.586 23.8242C142.891 23.8242 143.156 23.7604 143.379 23.6328C143.607 23.5052 143.794 23.3298 143.939 23.1064C144.085 22.8831 144.192 22.6234 144.261 22.3271C144.334 22.0309 144.37 21.7165 144.37 21.3838V21.2266C144.37 20.8984 144.334 20.5885 144.261 20.2969C144.192 20.0007 144.083 19.7386 143.933 19.5107C143.787 19.2829 143.6 19.1051 143.372 18.9775C143.149 18.8454 142.882 18.7793 142.572 18.7793C142.262 18.7793 141.993 18.8454 141.766 18.9775C141.542 19.1051 141.358 19.2829 141.212 19.5107C141.066 19.7386 140.959 20.0007 140.891 20.2969C140.822 20.5885 140.788 20.8984 140.788 21.2266ZM147.303 21.3838V21.2266C147.303 20.6934 147.38 20.1989 147.535 19.7432C147.69 19.2829 147.913 18.8841 148.205 18.5469C148.501 18.2051 148.861 17.9408 149.285 17.7539C149.714 17.5625 150.197 17.4668 150.734 17.4668C151.277 17.4668 151.76 17.5625 152.184 17.7539C152.612 17.9408 152.974 18.2051 153.271 18.5469C153.567 18.8841 153.792 19.2829 153.947 19.7432C154.102 20.1989 154.18 20.6934 154.18 21.2266V21.3838C154.18 21.917 154.102 22.4115 153.947 22.8672C153.792 23.3229 153.567 23.7217 153.271 24.0635C152.974 24.4007 152.614 24.665 152.19 24.8564C151.767 25.0433 151.286 25.1367 150.748 25.1367C150.206 25.1367 149.72 25.0433 149.292 24.8564C148.868 24.665 148.508 24.4007 148.212 24.0635C147.916 23.7217 147.69 23.3229 147.535 22.8672C147.38 22.4115 147.303 21.917 147.303 21.3838ZM148.95 21.2266V21.3838C148.95 21.7165 148.984 22.0309 149.053 22.3271C149.121 22.6234 149.228 22.8831 149.374 23.1064C149.52 23.3298 149.707 23.5052 149.935 23.6328C150.162 23.7604 150.434 23.8242 150.748 23.8242C151.053 23.8242 151.318 23.7604 151.541 23.6328C151.769 23.5052 151.956 23.3298 152.102 23.1064C152.247 22.8831 152.354 22.6234 152.423 22.3271C152.496 22.0309 152.532 21.7165 152.532 21.3838V21.2266C152.532 20.8984 152.496 20.5885 152.423 20.2969C152.354 20.0007 152.245 19.7386 152.095 19.5107C151.949 19.2829 151.762 19.1051 151.534 18.9775C151.311 18.8454 151.044 18.7793 150.734 18.7793C150.424 18.7793 150.156 18.8454 149.928 18.9775C149.704 19.1051 149.52 19.2829 149.374 19.5107C149.228 19.7386 149.121 20.0007 149.053 20.2969C148.984 20.5885 148.95 20.8984 148.95 21.2266ZM160.517 17.6035H162.014V24.7949C162.014 25.4603 161.872 26.0254 161.59 26.4902C161.307 26.9551 160.913 27.3083 160.407 27.5498C159.901 27.7959 159.316 27.9189 158.65 27.9189C158.368 27.9189 158.053 27.8779 157.707 27.7959C157.365 27.7139 157.033 27.5817 156.709 27.3994C156.39 27.2217 156.123 26.987 155.909 26.6953L156.682 25.7246C156.946 26.0391 157.238 26.2692 157.557 26.415C157.876 26.5609 158.211 26.6338 158.562 26.6338C158.94 26.6338 159.261 26.5632 159.525 26.4219C159.794 26.2852 160.002 26.0824 160.147 25.8135C160.293 25.5446 160.366 25.2165 160.366 24.8291V19.2783L160.517 17.6035ZM155.492 21.3838V21.2402C155.492 20.6797 155.561 20.1693 155.697 19.709C155.834 19.2441 156.03 18.8454 156.285 18.5127C156.54 18.1755 156.85 17.918 157.215 17.7402C157.579 17.5579 157.992 17.4668 158.452 17.4668C158.931 17.4668 159.339 17.5534 159.676 17.7266C160.018 17.8997 160.302 18.1481 160.53 18.4717C160.758 18.7907 160.936 19.1735 161.063 19.6201C161.196 20.0622 161.294 20.5544 161.357 21.0967V21.5547C161.298 22.0833 161.198 22.5664 161.057 23.0039C160.915 23.4414 160.729 23.8197 160.496 24.1387C160.264 24.4577 159.977 24.7038 159.635 24.877C159.298 25.0501 158.899 25.1367 158.438 25.1367C157.987 25.1367 157.579 25.0433 157.215 24.8564C156.855 24.6696 156.545 24.4076 156.285 24.0703C156.03 23.7331 155.834 23.3366 155.697 22.8809C155.561 22.4206 155.492 21.9215 155.492 21.3838ZM157.14 21.2402V21.3838C157.14 21.721 157.172 22.0355 157.235 22.3271C157.304 22.6188 157.406 22.8763 157.543 23.0996C157.684 23.3184 157.862 23.4915 158.076 23.6191C158.295 23.7422 158.552 23.8037 158.849 23.8037C159.236 23.8037 159.553 23.7217 159.799 23.5576C160.049 23.3936 160.241 23.1725 160.373 22.8945C160.51 22.612 160.605 22.2975 160.66 21.9512V20.7139C160.633 20.445 160.576 20.1943 160.489 19.9619C160.407 19.7295 160.296 19.5267 160.154 19.3535C160.013 19.1758 159.835 19.0391 159.621 18.9434C159.407 18.8431 159.154 18.793 158.862 18.793C158.566 18.793 158.309 18.8568 158.09 18.9844C157.871 19.112 157.691 19.2874 157.55 19.5107C157.413 19.734 157.311 19.9938 157.242 20.29C157.174 20.5863 157.14 20.903 157.14 21.2402ZM165.705 14.5V25H164.051V14.5H165.705ZM170.989 25.1367C170.442 25.1367 169.948 25.0479 169.506 24.8701C169.068 24.6878 168.695 24.4349 168.385 24.1113C168.079 23.7878 167.845 23.4072 167.681 22.9697C167.517 22.5322 167.435 22.0605 167.435 21.5547V21.2812C167.435 20.7025 167.519 20.1784 167.688 19.709C167.856 19.2396 168.091 18.8385 168.392 18.5059C168.692 18.1686 169.048 17.9111 169.458 17.7334C169.868 17.5557 170.312 17.4668 170.791 17.4668C171.32 17.4668 171.782 17.5557 172.179 17.7334C172.575 17.9111 172.903 18.1618 173.163 18.4854C173.427 18.8044 173.623 19.1849 173.751 19.627C173.883 20.069 173.949 20.5566 173.949 21.0898V21.7939H168.234V20.6113H172.322V20.4814C172.313 20.1852 172.254 19.9072 172.145 19.6475C172.04 19.3877 171.878 19.1781 171.659 19.0186C171.44 18.859 171.149 18.7793 170.784 18.7793C170.511 18.7793 170.267 18.8385 170.053 18.957C169.843 19.071 169.668 19.2373 169.526 19.4561C169.385 19.6748 169.276 19.9391 169.198 20.249C169.125 20.5544 169.089 20.8984 169.089 21.2812V21.5547C169.089 21.8783 169.132 22.179 169.219 22.457C169.31 22.7305 169.442 22.9697 169.615 23.1748C169.788 23.3799 169.998 23.5417 170.244 23.6602C170.49 23.7741 170.771 23.8311 171.085 23.8311C171.481 23.8311 171.835 23.7513 172.145 23.5918C172.454 23.4323 172.723 23.2067 172.951 22.915L173.819 23.7559C173.66 23.9883 173.452 24.2116 173.197 24.4258C172.942 24.6354 172.63 24.8063 172.261 24.9385C171.896 25.0706 171.472 25.1367 170.989 25.1367Z" fill="white"/>
<defs>
<filter id="filter0_dd_5_950" x="-1" y="-1" width="187" height="43" filterUnits="userSpaceOnUse" color-interpolation-filters="sRGB">
<feFlood flood-opacity="0" result="BackgroundImageFix"/>
<feColorMatrix in="SourceAlpha" type="matrix" values="0 0 0 0 0 0 0 0 0 0 0 0 0 0 0 0 0 0 127 0" result="hardAlpha"/>
<feOffset dy="1"/>
<feGaussianBlur stdDeviation="0.5"/>
<feColorMatrix type="matrix" values="0 0 0 0 0 0 0 0 0 0 0 0 0 0 0 0 0 0 0.24 0"/>
<feBlend mode="normal" in2="BackgroundImageFix" result="effect1_dropShadow_5_950"/>
<feColorMatrix in="SourceAlpha" type="matrix" values="0 0 0 0 0 0 0 0 0 0 0 0 0 0 0 0 0 0 127 0" result="hardAlpha"/>
<feOffset/>
<feGaussianBlur stdDeviation="0.5"/>
<feColorMatrix type="matrix" values="0 0 0 0 0 0 0 0 0 0 0 0 0 0 0 0 0 0 0.12 0"/>
<feBlend mode="normal" in2="effect1_dropShadow_5_950" result="effect2_dropShadow_5_950"/>
<feBlend mode="normal" in="SourceGraphic" in2="effect2_dropShadow_5_950" result="shape"/>
</filter>
<clipPath id="clip0_5_950">
<rect width="185" height="40" fill="white"/>
</clipPath>
<clipPath id="clip1_5_950">
<rect width="18" height="18" fill="white" transform="translate(11 11)"/>
</clipPath>
</defs>
</svg>
